<svg width="32" height="32" viewBox="0 0 32 32" fill="none" xmlns="http://www.w3.org/2000/svg">
<path fill-rule="evenodd" clip-rule="evenodd" d="M16 32C24.8366 32 32 24.8366 32 16C32 7.16344 24.8366 0 16 0C7.16344 0 0 7.16344 0 16C0 24.8366 7.16344 32 16 32Z" fill="white"/>
<mask id="mask0_559_3222" style="mask-type:alpha" maskUnits="userSpaceOnUse" x="0" y="0" width="32" height="32">
<path fill-rule="evenodd" clip-rule="evenodd" d="M16 32C24.8366 32 32 24.8366 32 16C32 7.16344 24.8366 0 16 0C7.16344 0 0 7.16344 0 16C0 24.8366 7.16344 32 16 32Z" fill="white"/>
</mask>
<g mask="url(#mask0_559_3222)">
<path d="M14.1406 9.76562V11.3672H9.60156V13.9141H12.8125V15.5156H9.60156V19.3984H14.3047V21H7.42188V9.76562H14.1406ZM20.8672 9.76562C21.3724 9.76562 21.8385 9.83073 22.2656 9.96094C22.6927 10.0859 23.0625 10.276 23.375 10.5312C23.6875 10.7865 23.9297 11.1094 24.1016 11.5C24.2786 11.8906 24.3672 12.3464 24.3672 12.8672C24.3672 13.2891 24.2969 13.6745 24.1562 14.0234C24.0156 14.3724 23.8177 14.6771 23.5625 14.9375C23.3073 15.1927 23.0052 15.401 22.6562 15.5625C22.3073 15.724 21.9219 15.8307 21.5 15.8828L21.4922 15.9062C21.7005 16.026 21.9036 16.1953 22.1016 16.4141C22.2995 16.6276 22.4896 16.862 22.6719 17.1172C22.8594 17.3724 23.0365 17.6328 23.2031 17.8984C23.375 18.1641 23.5312 18.4089 23.6719 18.6328L25.2188 21H22.7578C22.5755 20.6979 22.3698 20.3542 22.1406 19.9688C21.9167 19.5781 21.6901 19.1901 21.4609 18.8047C21.237 18.4193 21.0234 18.0625 20.8203 17.7344C20.6224 17.401 20.4609 17.1406 20.3359 16.9531C20.2161 16.7812 20.1042 16.6354 20 16.5156C19.901 16.3958 19.7995 16.2995 19.6953 16.2266C19.5911 16.1536 19.4792 16.1016 19.3594 16.0703C19.2448 16.0391 19.1146 16.0208 18.9688 16.0156H18.9062V21H16.7266V9.76562H20.8672ZM20.0312 14.5156C20.3698 14.5156 20.6693 14.4896 20.9297 14.4375C21.1953 14.3802 21.4167 14.2891 21.5938 14.1641C21.776 14.0339 21.9141 13.8646 22.0078 13.6562C22.1016 13.4479 22.1484 13.1927 22.1484 12.8906C22.1484 12.5885 22.1016 12.3333 22.0078 12.125C21.9141 11.9167 21.776 11.75 21.5938 11.625C21.4167 11.4948 21.1953 11.4036 20.9297 11.3516C20.6693 11.2943 20.3698 11.2656 20.0312 11.2656H18.9062V14.5156H20.0312Z" fill="#003087"/>
</g>
</svg>