<svg width="24" height="13" viewBox="0 0 24 13" fill="none" xmlns="http://www.w3.org/2000/svg">
<path d="M17.5 12.8065C16.122 12.8065 15 11.9278 15 10.8487C15 9.76953 16.122 8.89087 17.5 8.89087C18.878 8.89087 20 9.76953 20 10.8487C20 11.9278 18.878 12.8065 17.5 12.8065ZM17.5 9.67399C16.673 9.67399 16 10.201 16 10.8487C16 11.4963 16.673 12.0233 17.5 12.0233C18.327 12.0233 19 11.4963 19 10.8487C19 10.201 18.327 9.67399 17.5 9.67399Z" fill="white"/>
<path d="M4.5 12.8065C3.121 12.8065 2 11.9278 2 10.8487C2 9.76953 3.121 8.89087 4.5 8.89087C5.879 8.89087 7 9.76953 7 10.8487C7 11.9278 5.879 12.8065 4.5 12.8065ZM4.5 9.67399C3.673 9.67399 3 10.201 3 10.8487C3 11.4963 3.673 12.0233 4.5 12.0233C5.327 12.0233 6 11.4963 6 10.8487C6 10.201 5.327 9.67399 4.5 9.67399Z" fill="white"/>
<path d="M9 11.2404C8.86739 11.2404 8.74021 11.1991 8.64645 11.1257C8.55268 11.0523 8.5 10.9527 8.5 10.8488C8.5 10.745 8.55268 10.6454 8.64645 10.572C8.74021 10.4985 8.86739 10.4573 9 10.4573H13.5C13.6326 10.4573 13.7598 10.4985 13.8536 10.572C13.9473 10.6454 14 10.745 14 10.8488C14 10.9527 13.9473 11.0523 13.8536 11.1257C13.7598 11.1991 13.6326 11.2404 13.5 11.2404H9Z" fill="white"/>
<path d="M21.5 11.2403C21.3674 11.2403 21.2402 11.199 21.1464 11.1256C21.0527 11.0522 21 10.9526 21 10.8487C21 10.7449 21.0527 10.6453 21.1464 10.5718C21.2402 10.4984 21.3674 10.4572 21.5 10.4572H22.5C22.6326 10.4572 22.7598 10.4159 22.8536 10.3425C22.9473 10.269 23 10.1695 23 10.0656V7.41709C23.0003 7.3443 22.9744 7.2729 22.9255 7.21103C22.8765 7.14915 22.8064 7.09926 22.723 7.06704L20.382 6.15001H15V8.89092C15 8.99477 14.9473 9.09437 14.8536 9.1678C14.7598 9.24123 14.6326 9.28248 14.5 9.28248C14.3674 9.28248 14.2402 9.24123 14.1464 9.1678C14.0527 9.09437 14 8.99477 14 8.89092V8.10781H1V9.28248C1 9.38633 0.947322 9.48593 0.853553 9.55936C0.759785 9.63279 0.632608 9.67404 0.5 9.67404C0.367392 9.67404 0.240215 9.63279 0.146447 9.55936C0.0526784 9.48593 0 9.38633 0 9.28248V1.45129C0 0.803651 0.673 0.276611 1.5 0.276611H18C19.378 0.276611 20.5 1.15449 20.5 2.23441V2.62597C20.5005 2.75108 20.4623 2.87441 20.3886 2.98543C20.3149 3.09644 20.208 3.19183 20.077 3.26343C20.124 3.33234 20.16 3.40361 20.187 3.47722L20.92 5.48514L23.17 6.36693C23.682 6.56663 24 6.96915 24 7.41631V10.0656C24 10.7132 23.327 11.2403 22.5 11.2403H21.5ZM14 7.32469V1.05973H1.5C1.36739 1.05973 1.24021 1.10098 1.14645 1.17442C1.05268 1.24785 1 1.34744 1 1.45129V7.32469H14ZM19.837 5.36689L19.226 3.69258C19.1959 3.61102 19.1329 3.5393 19.0463 3.48818C18.9598 3.43707 18.8544 3.40931 18.746 3.40909H15V5.36689H19.837ZM19.5 2.62597V2.23441C19.5 1.58677 18.827 1.05973 18 1.05973H15V2.62597H19.5Z" fill="white"/>
</svg>