<svg width="20" height="20" viewBox="0 0 20 20" fill="none" xmlns="http://www.w3.org/2000/svg">
<path d="M2 1.5H0.5V0.5H2.95253L3.75749 2.21268L3.89253 2.5H4.21H19C19.2739 2.5 19.5 2.72614 19.5 3C19.5 3.09598 19.4767 3.17801 19.4459 3.23193L19.4458 3.2319L19.4422 3.2385L15.8622 9.7285L15.8616 9.72958C15.6079 10.1922 15.1144 10.5 14.55 10.5H7.1H6.80492L6.66229 10.7583L5.76229 12.3883L5.73075 12.4454L5.71493 12.5087L5.68493 12.6287L5.67 12.6884V12.75C5.67 13.1661 6.00386 13.5 6.42 13.5H17.5V14.5H6C5.17614 14.5 4.5 13.8239 4.5 13C4.5 12.7357 4.56793 12.4914 4.68412 12.2881L4.68417 12.2881L4.68792 12.2813L6.03792 9.8313L6.16148 9.60706L6.05176 9.37573L2.45176 1.78573L2.31624 1.5H2ZM4.51 18C4.51 17.1729 5.1794 16.5 6 16.5C6.82386 16.5 7.5 17.1761 7.5 18C7.5 18.8239 6.82386 19.5 6 19.5C5.1794 19.5 4.51 18.8271 4.51 18ZM14.51 18C14.51 17.1729 15.1794 16.5 16 16.5C16.8239 16.5 17.5 17.1761 17.5 18C17.5 18.8239 16.8239 19.5 16 19.5C15.1794 19.5 14.51 18.8271 14.51 18Z" stroke="#EEEEEE"/>
</svg>