<svg width="34" height="23" viewBox="0 0 34 23" fill="none" xmlns="http://www.w3.org/2000/svg">
<g clip-path="url(#clip0_559_3277)">
<path d="M22.9227 11.4585L23.5915 10.9858C23.8377 10.8116 23.9733 10.5828 23.9733 10.3416C23.9733 9.82983 23.3631 9.41357 22.6131 9.41357C22.0391 9.41357 21.4379 9.50103 20.8239 9.67161L18.2051 11.4585L20.8239 13.2454C21.4379 13.4159 22.0391 13.5034 22.6131 13.5034C23.3632 13.5034 23.9733 13.0871 23.9733 12.5754C23.9733 12.3341 23.8377 12.1054 23.5915 11.9314L22.9227 11.4585Z" fill="#53CC35"/>
<path d="M19.4125 14.2078L16.7939 12.4209L14.1751 14.2078C13.9251 14.6266 13.7969 15.0369 13.7969 15.4285C13.7969 15.9403 14.407 16.3565 15.157 16.3565C15.5106 16.3565 15.8459 16.264 16.1009 16.096L16.7938 15.6397L17.4867 16.096C17.7417 16.264 18.077 16.3565 18.4306 16.3565C19.1806 16.3565 19.7907 15.9402 19.7907 15.4285C19.7908 15.0369 19.6626 14.6267 19.4125 14.2078Z" fill="#53CC35"/>
<path d="M12.7641 9.67137C12.1501 9.50079 11.5489 9.41333 10.9749 9.41333C10.2248 9.41333 9.61475 9.82964 9.61475 10.3413C9.61475 10.5826 9.75034 10.8113 9.99654 10.9854L10.6653 11.4581L9.99654 11.9309C9.75034 12.1049 9.61475 12.3336 9.61475 12.5749C9.61475 13.0866 10.2249 13.5029 10.9749 13.5029C11.5489 13.5029 12.1501 13.4154 12.7641 13.2449L15.3829 11.4582L12.7641 9.67137Z" fill="#53CC35"/>
<path d="M18.4306 6.56006C18.0769 6.56006 17.7417 6.65258 17.4867 6.82056L16.7938 7.27688L16.1009 6.82056C15.8459 6.65258 15.5106 6.56006 15.157 6.56006C14.407 6.56006 13.7969 6.97636 13.7969 7.48805C13.7969 7.87969 13.9251 8.28991 14.1751 8.70881L16.7937 10.4957L19.4126 8.70881C19.6626 8.28995 19.7908 7.87969 19.7908 7.48805C19.7908 6.97636 19.1806 6.56006 18.4306 6.56006Z" fill="#53CC35"/>
<path d="M16.7939 3.19897C10.119 3.19897 4.68848 6.90413 4.68848 11.4584C4.68848 16.0127 10.1189 19.7179 16.7939 19.7179C23.4689 19.7179 28.8994 16.0127 28.8994 11.4584C28.8994 6.90413 23.4688 3.19897 16.7939 3.19897ZM22.6129 14.8647C22.3176 14.8647 22.0198 14.8496 21.7202 14.8196C21.7643 15.024 21.7864 15.2272 21.7864 15.4287C21.7864 16.6911 20.2811 17.7182 18.4308 17.7182C17.8499 17.7182 17.2893 17.6172 16.7939 17.4277C16.2985 17.6172 15.7379 17.7182 15.157 17.7182C13.3068 17.7182 11.8015 16.6911 11.8015 15.4287C11.8015 15.2272 11.8237 15.024 11.8676 14.8196C11.5681 14.8496 11.2702 14.8647 10.9749 14.8647C9.12462 14.8647 7.61934 13.8377 7.61934 12.5752C7.61934 12.1789 7.76727 11.7964 8.04502 11.4584C7.76727 11.1204 7.61934 10.7379 7.61934 10.3416C7.61934 9.07916 9.12462 8.05212 10.9749 8.05212C11.2702 8.05212 11.5681 8.06724 11.8676 8.09723C11.8236 7.89286 11.8015 7.68966 11.8015 7.48815C11.8015 6.22572 13.3068 5.19868 15.157 5.19868C15.7379 5.19868 16.2986 5.29961 16.7939 5.48912C17.2893 5.29961 17.8499 5.19868 18.4308 5.19868C20.2811 5.19868 21.7864 6.22572 21.7864 7.48815C21.7864 7.68966 21.7642 7.89286 21.7202 8.09723C22.0198 8.0672 22.3176 8.05212 22.6129 8.05212C24.4632 8.05212 25.9685 9.07916 25.9685 10.3416C25.9685 10.7379 25.8206 11.1204 25.5428 11.4584C25.8206 11.7964 25.9685 12.1789 25.9685 12.5752C25.9684 13.8377 24.4632 14.8647 22.6129 14.8647Z" fill="#53CC35"/>
<path d="M28.6689 3.35604C25.497 1.19185 21.2797 0 16.7939 0C12.3081 0 8.09079 1.19185 4.91877 3.35604C1.74683 5.52028 0 8.39766 0 11.4583C0 14.519 1.74683 17.3964 4.91877 19.5606C8.09079 21.7248 12.308 22.9167 16.7939 22.9167C21.2798 22.9167 25.4971 21.7248 28.669 19.5606C31.841 17.3964 33.5878 14.519 33.5878 11.4583C33.5878 8.39766 31.8409 5.52028 28.6689 3.35604ZM16.7939 21.0792C9.01865 21.0792 2.69306 16.7633 2.69306 11.4583C2.69306 6.15335 9.01865 1.83745 16.7939 1.83745C24.5691 1.83745 30.8947 6.15335 30.8947 11.4583C30.8947 16.7633 24.5691 21.0792 16.7939 21.0792Z" fill="#53CC35"/>
</g>
<defs>
<clipPath id="clip0_559_3277">
<rect width="33.5878" height="22.9167" fill="white"/>
</clipPath>
</defs>
</svg>