<svg width="24" height="22" viewBox="0 0 24 22" fill="none" xmlns="http://www.w3.org/2000/svg">
<path d="M5 21.5039C4.86739 21.5039 4.74021 21.4512 4.64645 21.3575C4.55268 21.2637 4.5 21.1365 4.5 21.0039C4.5 20.8713 4.55268 20.7441 4.64645 20.6504C4.74021 20.5566 4.86739 20.5039 5 20.5039H11V19.5039H2C0.897 19.5039 0 18.6069 0 17.5039V2.50391C0 1.40091 0.897 0.503906 2 0.503906H22C23.103 0.503906 24 1.40091 24 2.50391V17.5039C24 18.6069 23.103 19.5039 22 19.5039H12V20.5039H19C19.1326 20.5039 19.2598 20.5566 19.3536 20.6504C19.4473 20.7441 19.5 20.8713 19.5 21.0039C19.5 21.1365 19.4473 21.2637 19.3536 21.3575C19.2598 21.4512 19.1326 21.5039 19 21.5039H5ZM1 17.5039C1 18.0559 1.449 18.5039 2 18.5039H22C22.2652 18.5039 22.5196 18.3986 22.7071 18.211C22.8946 18.0235 23 17.7691 23 17.5039V15.5039H1V17.5039ZM23 14.5039V2.50391C23 1.95291 22.552 1.50391 22 1.50391H2C1.449 1.50391 1 1.95291 1 2.50391V14.5039H23Z" fill="#EEEEEE"/>
<path d="M5 13.504C4.86739 13.504 4.74021 13.4513 4.64645 13.3576C4.55268 13.2638 4.5 13.1366 4.5 13.004C4.5 12.8714 4.55268 12.7442 4.64645 12.6504C4.74021 12.5567 4.86739 12.504 5 12.504V10.5C5 9.949 5.449 9.5 6 9.5H8C8.551 9.5 9 9.949 9 10.5V12.504H10V7.5C10 6.949 10.449 6.5 11 6.5H13C13.552 6.5 14 6.949 14 7.5V12.504H15V4.5C15 3.949 15.448 3.5 16 3.5H18C18.552 3.5 19 3.949 19 4.5V12.504C19.1326 12.504 19.2598 12.5567 19.3536 12.6504C19.4473 12.7442 19.5 12.8714 19.5 13.004C19.5 13.1366 19.4473 13.2638 19.3536 13.3576C19.2598 13.4513 19.1326 13.504 19 13.504H5ZM18 12.5V4.5H16V12.5H18ZM13 12.5V7.5H11V12.5H13ZM8 12.5V10.5H6V12.5H8Z" fill="#EEEEEE"/>
</svg>