<svg width="70" height="68" viewBox="0 0 70 68" fill="none" xmlns="http://www.w3.org/2000/svg">
<ellipse cx="35" cy="34" rx="35" ry="34" fill="url(#paint0_linear_586_1763)"/>
<path d="M31.7183 9.16846H35.4995H39.2807L42.3056 9.57037L45.8977 10.3742L49.8679 11.4459L53.46 12.9196L56.4849 15.465L58.9427 18.6803L61.2114 22.4314L62.5348 24.441V26.1826L62.1567 27.2543L61.4005 27.7902L65.9379 32.6131L66.316 33.5509L66.1269 35.1585L62.9129 36.9002V37.3021L63.291 37.704V38.6418V39.1776V39.5795L62.7239 39.9814L62.5348 41.4551L61.0223 42.125L60.8333 42.6608L61.7786 43.4647V44.0005V45.4742L60.8333 47.0818L59.3208 48.2876L57.6193 49.0914L55.7287 49.4933L50.4351 50.2971L48.9226 52.7086L48.1664 54.8521L47.4102 56.9956L46.2758 57.7994L45.1415 58.0673H26.8028H18.6733H15.2703L14.1359 57.5315L13.7578 56.8616V55.5219L14.1359 55.12L15.2703 53.7803L16.4046 52.4406L17.539 51.1009L18.2952 50.0292L19.0514 47.8857L19.4295 46.9479V45.2063V43.8666L19.0514 42.2589L17.9171 40.6513L16.4046 39.5795L14.514 37.9719L13.0016 36.3643L11.4891 34.4887L10.3548 32.8811L9.59852 31.8093L8.84229 29.9337V28.4601V26.3166V24.8429V23.5032L9.2204 22.1635L9.97663 20.4219L11.111 18.2784L12.6234 16.2688L13.9469 14.9291L16.4046 13.3215L18.6733 11.9818L20.942 11.178L23.3998 10.5082L26.4247 9.70434L28.6934 9.4364L31.7183 9.16846Z" fill="#72CC50" stroke="#0B76C4" stroke-opacity="0.53"/>
<path d="M36.7993 16.9414L39.9934 18.0765L41.8186 19.1359L43.2788 20.498L44.3739 22.3141L45.0127 24.1302L44.9214 27.157L44.5564 28.6705L42.5487 31.3946L40.6322 32.7567V36.9943L40.3584 37.4483L39.2633 38.3564L38.807 38.5077V40.4752H37.9857V42.2913H36.8906V44.0318H34.916H32.8751V42.2913H31.9625V40.6265H30.7761V38.6591H30.3198L30.1373 38.5077L29.4072 38.0537L29.0422 37.751L28.7684 37.5997L28.4034 37.3727L28.2209 32.6054H28.1296L27.217 32L26.3044 31.0919L25.2093 29.8812L24.2967 28.5191L23.9316 26.8543V26.0976V24.8869L24.1142 23.3735L25.0268 21.7087L25.9394 20.3466L27.3995 18.9845L29.2247 17.9251L32.8751 16.8657H36.1605L36.7993 16.9414Z" fill="#FEFEFE"/>
<path d="M36.7993 16.9414L39.9934 18.0765L41.8186 19.1359L43.2788 20.498L44.3739 22.3141L45.0127 24.1302L44.9214 27.157L44.5564 28.6705L42.5487 31.3946L40.6322 32.7567V36.9943L40.3584 37.4483L39.2633 38.3564L38.807 38.5077V40.4752H37.9857V42.2913H36.8906V44.0318H34.916H32.8751V42.2913H31.9625V40.6265H30.7761V38.6591H30.3198L30.1373 38.5077L29.4072 38.0537L29.0422 37.751L28.7684 37.5997L28.4034 37.3727L28.2209 32.6054H28.1296L27.217 32L26.3044 31.0919L25.2093 29.8812L24.2967 28.5191L23.9316 26.8543V26.0976V24.8869L24.1142 23.3735L25.0268 21.7087L25.9394 20.3466L27.3995 18.9845L29.2247 17.9251L32.8751 16.8657H36.1605L36.7993 16.9414Z" fill="white"/>
<path d="M30.7761 38.6591H30.3198L30.1373 38.5077L29.4072 38.0537L29.0422 37.751L28.7684 37.5997L28.4034 37.3727L28.2209 32.6054H28.1296L27.217 32L26.3044 31.0919L25.2093 29.8812L24.2967 28.5191L23.9316 26.8543V26.0976V24.8869L24.1142 23.3735L25.0268 21.7087L25.9394 20.3466L27.3995 18.9845L29.2247 17.9251L32.8751 16.8657H36.1605L36.7993 16.9414L39.9934 18.0765L41.8186 19.1359L43.2788 20.498L44.3739 22.3141L45.0127 24.1302L44.9214 27.157L44.5564 28.6705L42.5487 31.3946L40.6322 32.7567V36.9943L40.3584 37.4483L39.2633 38.3564L38.807 38.5077M30.7761 38.6591V40.6265H31.9625M30.7761 38.6591L38.807 38.5077M31.9625 40.6265V42.2913H32.8751M31.9625 40.6265H34.916L37.9857 40.4752M32.8751 42.2913V44.0318H34.916H36.8906V42.2913M32.8751 42.2913H36.8906M36.8906 42.2913H37.9857V40.4752M37.9857 40.4752H38.807V38.5077M34.5831 26.8543L29.7012 21.167M34.5831 26.8543L38.5774 21.5066M34.5831 26.8543L34.916 38.5811" stroke="#0B76C4" stroke-opacity="0.53"/>
<rect x="33.0298" y="42.4468" width="3.77242" height="1.3583" fill="#FCC112"/>
<rect x="32.1421" y="40.6357" width="5.76957" height="1.58469" fill="#FCC112"/>
<rect x="30.811" y="38.5986" width="7.98861" height="1.81107" fill="#FCC112"/>
<defs>
<linearGradient id="paint0_linear_586_1763" x1="-17.9861" y1="6.47619" x2="94.2514" y2="64.8363" gradientUnits="userSpaceOnUse">
<stop stop-color="#66864C"/>
<stop offset="1" stop-color="#70FD02" stop-opacity="0"/>
</linearGradient>
</defs>
</svg>
