<svg width="25" height="21" viewBox="0 0 25 21" fill="none" xmlns="http://www.w3.org/2000/svg">
<path d="M5.00195 18C4.45095 18 4.00195 17.552 4.00195 17V12C4.00195 11.448 4.45095 11 5.00195 11H12.002C12.2672 11 12.5215 11.1054 12.7091 11.2929C12.8966 11.4804 13.002 11.7348 13.002 12V17C13.002 17.2652 12.8966 17.5196 12.7091 17.7071C12.5215 17.8946 12.2672 18 12.002 18H5.00195ZM5.00195 17H12.002V12H5.00195V17Z" fill="#EEEEEE"/>
<path d="M3.50199 21C2.67499 21 2.00199 20.327 2.00199 19.5V8.67001C1.38843 8.39932 0.870002 7.95107 0.513533 7.38304C0.157065 6.81501 -0.0211041 6.15323 0.00199218 5.48301V4.50001C0.00270293 4.42383 0.0201119 4.34873 0.0529922 4.28001L1.77899 0.829011C1.90262 0.579248 2.09382 0.369163 2.33087 0.222622C2.56791 0.0760803 2.84131 -0.00104375 3.11999 1.06686e-05H20.884C21.1628 -0.000951783 21.4362 0.0763216 21.6733 0.223046C21.9104 0.369771 22.1015 0.580061 22.225 0.830011L23.949 4.27701C23.955 4.28801 23.96 4.30301 23.965 4.31701L23.971 4.33301C23.9912 4.38638 24.0017 4.44294 24.002 4.50001V5.49601C24.022 6.16409 23.8424 6.82297 23.4862 7.3885C23.1299 7.95403 22.6132 8.40054 22.002 8.67101V19.5C22.002 20.327 21.329 21 20.502 21H3.50199ZM20.502 20C20.6346 20 20.7618 19.9473 20.8555 19.8536C20.9493 19.7598 21.002 19.6326 21.002 19.5V8.94101C20.919 8.95101 20.837 8.95701 20.759 8.96001L20.645 8.96201C19.8999 8.9634 19.1755 8.71677 18.586 8.26101C17.9026 9.12296 16.9304 9.70861 15.849 9.90987C14.7675 10.1111 13.6497 9.9144 12.702 9.35601C12.4528 9.20896 12.2184 9.03817 12.002 8.84601C11.1707 9.58484 10.0961 9.9911 8.98399 9.98701C8.29778 9.98765 7.62036 9.83266 7.00269 9.5337C6.38503 9.23474 5.84321 8.7996 5.41799 8.26101C4.73077 8.79113 3.86462 9.03384 3.00199 8.93801V19.5C3.00199 19.6326 3.05467 19.7598 3.14844 19.8536C3.24221 19.9473 3.36938 20 3.50199 20H14.002V12C14.002 11.7348 14.1073 11.4804 14.2949 11.2929C14.4824 11.1054 14.7368 11 15.002 11H19.002C19.2672 11 19.5216 11.1054 19.7091 11.2929C19.8966 11.4804 20.002 11.7348 20.002 12V20H20.502ZM19.002 20V12H15.002V20H19.002ZM12.502 7.93801C12.8302 8.26925 13.2207 8.53235 13.6509 8.7122C14.0811 8.89206 14.5427 8.98511 15.009 8.98601C15.6052 8.98872 16.1924 8.84037 16.7157 8.55482C17.2391 8.26927 17.6816 7.85581 18.002 7.35301V5.00001H12.502V7.93801ZM6.00199 7.35501C6.32144 7.85504 6.76175 8.2665 7.28224 8.55139C7.80274 8.83628 8.38663 8.98541 8.97999 8.98501C9.92499 8.98501 10.839 8.60401 11.501 7.93701V5.00001H6.00199V7.35501ZM19.002 7.29501C19.445 7.72601 20.022 7.96201 20.637 7.96201C20.666 7.96201 20.694 7.96201 20.723 7.96001C21.3489 7.93759 21.9404 7.66778 22.3677 7.20978C22.7949 6.75178 23.0231 6.143 23.002 5.51701V5.00001H19.002V7.29501ZM1.00199 5.50001C0.988355 5.84941 1.0521 6.1975 1.18867 6.5194C1.32524 6.84129 1.53126 7.12902 1.79199 7.36201C2.22399 7.74601 2.77999 7.95801 3.35799 7.95801C3.97078 7.95722 4.55965 7.72009 5.00199 7.29601V5.00001H1.00199V5.50001ZM22.693 4.00001L21.331 1.27701C21.2898 1.19366 21.2261 1.12351 21.1471 1.07455C21.0681 1.02558 20.9769 0.999759 20.884 1.00001H18.143L18.893 4.00001H22.693ZM17.862 4.00001L17.112 1.00001H12.502V4.00001H17.862ZM11.502 4.00001V1.00001H6.89199L6.14199 4.00001H11.502ZM5.11199 4.00001L5.86199 1.00001H3.11999C3.02714 0.999667 2.93605 1.02534 2.85704 1.07412C2.77804 1.12291 2.71428 1.19284 2.67299 1.27601L1.31099 4.00001H5.11199Z" fill="#EEEEEE"/>
</svg>