<svg width="16" height="16" viewBox="0 0 16 16" fill="none" xmlns="http://www.w3.org/2000/svg">
<path d="M15.6667 16C15.6229 16.0001 15.5795 15.9915 15.539 15.9748C15.4985 15.9581 15.4617 15.9336 15.4307 15.9027L9.428 9.9C8.39316 10.8241 7.05405 11.3344 5.66667 11.3333C2.542 11.3333 0 8.79133 0 5.66667C0 2.542 2.542 0 5.66667 0C8.79133 0 11.3333 2.542 11.3333 5.66667C11.3345 7.05418 10.8239 8.39339 9.89933 9.428L15.902 15.4307C15.9487 15.4772 15.9805 15.5366 15.9935 15.6013C16.0064 15.666 15.9998 15.733 15.9747 15.794C15.9495 15.855 15.9067 15.9071 15.8519 15.9437C15.7971 15.9804 15.7326 16 15.6667 16ZM5.66667 0.666667C2.91 0.666667 0.666667 2.91 0.666667 5.66667C0.666667 8.42333 2.91 10.6667 5.66667 10.6667C8.42333 10.6667 10.6667 8.42333 10.6667 5.66667C10.6667 2.91 8.42333 0.666667 5.66667 0.666667Z" fill="#5B5C60"/>
</svg>