<svg width="24" height="24" viewBox="0 0 24 24" fill="none" xmlns="http://www.w3.org/2000/svg">
<path d="M1 2.11812C1.00009 1.94773 1.04372 1.78019 1.12674 1.63139C1.20977 1.4826 1.32944 1.35748 1.47439 1.26792C1.61935 1.17837 1.78479 1.12733 1.95501 1.11967C2.12522 1.112 2.29458 1.14795 2.447 1.22412L22.211 11.1061C22.3769 11.1893 22.5164 11.3169 22.6138 11.4748C22.7113 11.6327 22.7629 11.8146 22.7629 12.0001C22.7629 12.1857 22.7113 12.3676 22.6138 12.5254C22.5164 12.6833 22.3769 12.811 22.211 12.8941L2.447 22.7761C2.29458 22.8523 2.12522 22.8882 1.95501 22.8806C1.78479 22.8729 1.61935 22.8219 1.47439 22.7323C1.32944 22.6428 1.20977 22.5176 1.12674 22.3688C1.04372 22.2201 1.00009 22.0525 1 21.8821V2.11812Z" stroke="#003087" stroke-linecap="round" stroke-linejoin="round"/>
</svg>