<svg width="16" height="16" viewBox="0 0 16 16" fill="none" xmlns="http://www.w3.org/2000/svg">
<g clip-path="url(#clip0_559_3254)">
<path d="M8.02671 12.5778C7.83604 12.5778 7.65404 12.4958 7.52737 12.3538L0.111373 3.97114C0.052849 3.90492 0.0230256 3.81817 0.0284642 3.72997C0.0339027 3.64176 0.0741577 3.55933 0.140373 3.50081C0.206589 3.44228 0.293342 3.41246 0.381546 3.4179C0.469751 3.42333 0.552182 3.46359 0.610707 3.5298L8.02737 11.9118L15.4447 3.5298C15.5033 3.46363 15.5858 3.42338 15.674 3.41788C15.7622 3.41239 15.849 3.44208 15.9154 3.50047C15.9482 3.52949 15.9749 3.56468 15.9941 3.60404C16.0133 3.6434 16.0246 3.68616 16.0272 3.72987C16.0299 3.77357 16.0239 3.81738 16.0096 3.85878C15.9954 3.90018 15.9731 3.93836 15.944 3.97114L8.52671 12.3538C8.46383 12.4242 8.38679 12.4806 8.30062 12.5192C8.21446 12.5578 8.12112 12.5778 8.02671 12.5778Z" fill="#5B5C60"/>
</g>
<defs>
<clipPath id="clip0_559_3254">
<rect width="16" height="16" fill="white"/>
</clipPath>
</defs>
</svg>